<svg id="e2lmPAzI5qK1" xmlns="http://www.w3.org/2000/svg" xmlns:xlink="http://www.w3.org/1999/xlink" viewBox="0 0 655 418" shape-rendering="geometricPrecision" text-rendering="geometricPrecision"><path d="M0,0h655v418h-655L0,0ZM642,12.54c0-.298234-.241766-.54-.54-.54L13.5,12c-.298234,0-.54.241766-.54.54v393.42c0,.143217.056893.280568.158162.381838s.238621.158162.381838.158162h627.96c.298234,0,.54-.241766.54-.54v-393.42Z" fill="#d9d9d9"/><g transform="matrix(1.467216 0 0 1.429577-317.957087-20.877769)"><path d="M369.4321,194.6135c-.005061,2.90147-1.162522,5.682092-3.217753,7.730159s-4.839877,3.195811-7.741347,3.190741l-62.3599-.1089c-2.90147-.005061-5.682092-1.162522-7.730159-3.217753s-3.195811-4.839877-3.190741-7.741347l.0957-54.8599c.005061-2.90147,1.162522-5.682092,3.217753-7.730159s4.839877-3.195811,7.741347-3.190741l62.3599.1089c2.90147.005061,5.682092,1.162522,7.730159,3.217753s3.195811,4.839877,3.190741,7.741347l-.0957,54.8599ZM334.15,161.66c2.01-2.77,3.8-1.63,5.37.62q7.12,10.22,21.71,30.39.42.59.43-.14.3-25.76,0-51.54c-.03-1.95-.1-3.96-2.46-3.97q-31.82-.05-63.72-.01c-.94822.006226-1.778449.632967-2.04,1.54q-.41,1.43-.39,3.45.26,25.67-.09,51.41c-.000106.135982.085739.25718.214052.302202s.271066.004034.355948-.102202l12.83-16.19q.35-.44.92-.46c3.12-.11,7.12,6.31,8.81,8.59.093461.12868.243561.203996.402588.202009s.307197-.081033.397412-.212009q8.64-12.01,17.26-23.88Z" fill="#a0a0a0"/><path d="M339.52,162.28c-1.57-2.25-3.36-3.39-5.37-.62q-8.62,11.87-17.26,23.88c-.090215.130976-.238386.210021-.397412.212009s-.309127-.073329-.402588-.202009c-1.69-2.28-5.69-8.7-8.81-8.59q-.57.02-.92.46l-12.83,16.19c-.084882.106236-.227635.147224-.355948.102202s-.214158-.16622-.214052-.302202q.35-25.74.09-51.41-.02-2.02.39-3.45c.261551-.907033,1.09178-1.533774,2.04-1.54q31.9-.04,63.72.01c2.36.01,2.43,2.02,2.46,3.97q.3,25.78,0,51.54-.01.73-.43.14-14.59-20.17-21.71-30.39Zm-28.9817-2.2659c4.315661-.165837,7.676159-3.892744,7.5059-8.3243-.081751-2.128122-.98344-4.137456-2.506705-5.585969s-3.543327-2.21755-5.615795-2.137931c-4.315661.165837-7.676159,3.892744-7.5059,8.3243.081751,2.128122.98344,4.137456,2.506705,5.585969s3.543327,2.21755,5.615795,2.137931Z" fill="#ececec"/><ellipse rx="8.03" ry="7.82" transform="matrix(.038388 0.999263-.999263 0.038388 310.23 151.99)" fill="#a0a0a0"/><path d="M409.05,220.66c0,6.11324-2.428475,11.976097-6.751188,16.298811s-10.185572,6.751189-16.298812,6.751189h-117.38c-6.11324,0-11.976098-2.428475-16.298811-6.751189s-6.751189-10.185571-6.751189-16.298811v-107.18c0-6.11324,2.428475-11.976098,6.751189-16.298812s10.185571-6.751188,16.298811-6.751188h117.38c6.11324,0,11.976098,2.428475,16.298811,6.751189s6.751189,10.185571,6.751189,16.298811v107.18Zm-39.5222-80.9064c.00507-2.90147-1.142674-5.686116-3.190741-7.741347s-4.828689-3.212692-7.730159-3.217753l-62.3599-.1089c-2.90147-.00507-5.686116,1.142674-7.741347,3.190741s-3.212692,4.828689-3.217753,7.730159l-.0957,54.8599c-.00507,2.90147,1.142674,5.686116,3.190741,7.741347s4.828689,3.212692,7.730159,3.217753l62.3599.1089c2.90147.00507,5.686116-1.142674,7.741347-3.190741s3.212692-4.828689,3.217753-7.730159l.0957-54.8599Z" fill="#ececec"/></g><rect width="163.54" height="15.26" rx="0.45" ry="0.45" transform="matrix(1.584821 0 0 1 318.092034 216.395212)" fill="#d9d9d9"/><rect width="163.54" height="15.26" rx="0.45" ry="0.45" transform="matrix(1.217558 0 0 2.565863 318.092034 139.83472)" fill="#d9d9d9"/><rect width="163.32" height="15.4" rx="0.46" ry="0.46" transform="matrix(1.775456 0 0 1 318.092034 241.325214)" fill="#d9d9d9"/><rect width="163.32" height="15.24" rx="0.33" ry="0.33" transform="matrix(1.403077 0 0 1 318.092034 266.405212)" fill="#d9d9d9"/><rect width="163.5" height="15.24" rx="0.43" ry="0.43" transform="matrix(1.607267 0 0 1 318.092034 291.405212)" fill="#d9d9d9"/></svg>
