<svg id="eIYnixjpEHM1" xmlns="http://www.w3.org/2000/svg" xmlns:xlink="http://www.w3.org/1999/xlink" viewBox="0 0 625 419" shape-rendering="geometricPrecision" text-rendering="geometricPrecision"><g><path d="M606.34,406.5c1,0,3.22.42,4.6.18q.56-.1.56-.68v-393.5c0-.276142-.223858-.5-.5-.5h-597.5c-.276142,0-.5.223858-.5.5v393.49c0,.281665.228335.51.51.51q296.52,0,592.83,0" fill="none" stroke="#ececec" stroke-width="2"/></g><path d="M0,0h625v419h-625L0,0ZM606.34,406.5c1,0,3.22.42,4.6.18q.56-.1.56-.68v-393.5c0-.276142-.223858-.5-.5-.5h-597.5c-.276142,0-.5.223858-.5.5v393.49c0,.281665.228335.51.51.51q296.52,0,592.83,0Z" fill="#d9d9d9"/><rect width="244" height="82" rx="0.43" ry="0.43" transform="matrix(1.025402 0 0 1.00172 92.268 70.334574)" fill="#d9d9d9"/><rect width="415.04" height="65" rx="0.35" ry="0.35" transform="matrix(1 0 0 0.37035 92.268 209)" fill="#d9d9d9"/><rect width="415.04" height="65" rx="0.35" ry="0.35" transform="matrix(.844923 0 0 0.37035 92.268 242)" fill="#d9d9d9"/><rect width="415.04" height="65" rx="0.35" ry="0.35" transform="matrix(.914996 0 0 0.37035 92.268 275)" fill="#d9d9d9"/><rect width="415.04" height="65" rx="0.35" ry="0.35" transform="matrix(.89164 0 0 0.37035 92.268 308)" fill="#d9d9d9"/><rect width="415.04" height="65" rx="0.35" ry="0.35" transform="matrix(.940485 0 0 0.37035 92.268 341)" fill="#d9d9d9"/></svg>
