<svg xmlns="http://www.w3.org/2000/svg" class="lz8N3" width="36" height="36" viewBox="0 0 36 36" fill="currentColor"><g fill-rule="evenodd"><path d="M34.6363636,18 L1.63636364,18 L1.63636364,1.63636364 L34.6363636,1.63636364 L34.6363636,18 Z M9.02272727,13.4754549 L13.6127274,6.26181061 L16.8918235,11.4099548 L21.4818237,4.29545455 L27.3827279,13.4754549 L9.02272727,13.4754549 Z"></path><path d="M34.3636364,0 L1.63636364,0 C0.733090909,0 0,0.8064 0,1.8 L0,34.2 C0,35.1936 0.733090909,36 1.63636364,36 L34.3636364,36 C35.2669091,36 36,35.1936 36,34.2 L36,1.8 C36,0.8064 35.2669091,0 34.3636364,0 L34.3636364,0 Z M34.3636364,34.2 L1.63636364,34.2 L1.63636364,1.8 L34.3636364,1.8 L34.3636364,34.2 Z"></path><path d="M6.54545455,23 L29.4545455,23 L29.4545455,21 L6.54545455,21 L6.54545455,23 Z M6.54545455,27 L29.4545455,27 L29.4545455,25 L6.54545455,25 L6.54545455,27 Z M6.54545455,31 L24.5454545,31 L24.5454545,29 L6.54545455,29 L6.54545455,31 Z" opacity="0.5"></path></g></svg>