<svg xmlns="http://www.w3.org/2000/svg" class="lz8N3" width="36" height="36" viewBox="0 0 36 36" fill="currentColor"><path d="M2,1.99970728 L2,1.99970728 L2,34.0002927 C2,34.0028327 1.99716198,34 1.99970728,34 L34.0002927,34 C34.0028327,34 34,34.002838 34,34.0002927 L34,1.99970728 C34,1.99716728 34.002838,2 34.0002927,2 L1.99970728,2 C1.99716728,2 2,1.99716198 2,1.99970728 L2,1.99970728 Z M0,1.99970728 C0,0.895299444 0.889892578,0 1.99970728,0 L34.0002927,0 C35.1047006,0 36,0.889892578 36,1.99970728 L36,34.0002927 C36,35.1047006 35.1101074,36 34.0002927,36 L1.99970728,36 C0.895299444,36 0,35.1101074 0,34.0002927 L0,1.99970728 L0,1.99970728 Z"></path><polygon points="6 10 28.9090909 10 28.9090909 7 6 7"></polygon><polygon fill-opacity="0.54" points="6 26 24 26 24 24 6 24"></polygon><polygon fill-opacity="0.54" points="6 22 28.9090909 22 28.9090909 20 6 20"></polygon><polygon fill-opacity="0.54" points="6 18 28.9090909 18 28.9090909 16 6 16"></polygon></svg>