<svg width="108px" height="74px" viewBox="0 0 108 74" version="1.1" focusable="false" xmlns="http://www.w3.org/2000/svg" xmlns:xlink="http://www.w3.org/1999/xlink"><defs><rect id="path-1" x="0" y="0" width="44" height="34"></rect></defs><g id="Page-1" stroke="none" stroke-width="1" fill="none" fill-rule="evenodd"><g id="winner-copy-5" transform="translate(-58.000000, -283.000000)"><g id="Group-11" transform="translate(58.000000, 236.000000)"><g id="Group-13" transform="translate(0.000000, 47.000000)"><path d="M0,0.990129262 C0,0.44329597 0.446521291,0 1.00019413,0 L106.999806,0 C107.552198,0 108,0.453369457 108,0.990129262 L108,73.0098707 C108,73.556704 107.553479,74 106.999806,74 L1.00019413,74 C0.447802166,74 0,73.5466305 0,73.0098707 L0,0.990129262 Z" id="Rectangle-47"></path><g id="Group-4" transform="translate(8.000000, 20.000000)"><g id="Rectangle-122"><use fill="#FDFDFD" fill-rule="evenodd" xlink:href="#path-1"></use><rect stroke-opacity="0.2" stroke="#979797" stroke-width="1" x="0.5" y="0.5" width="43" height="33"></rect></g><g><polygon id="Rectangle-624" fill="#666666" fill-rule="evenodd" points="17.7304061 16.4633821 19.6563122 18.4540679 24.0304259 12 30.2857143 22 14 22"></polygon><circle id="Oval-10" fill="#666666" fill-rule="evenodd" cx="17.4285714" cy="11.7142857" r="1.71428571"></circle></g></g><rect id="Rectangle-122" fill="#9E9E9E" x="57" y="23" width="39" height="2"></rect><rect id="Rectangle-122" fill="#E0E0E0" x="57" y="31" width="43" height="1"></rect><rect id="Rectangle-122" fill="#E0E0E0" x="57" y="36" width="43" height="1"></rect><rect id="Rectangle-122" fill="#E0E0E0" x="57" y="41" width="22.5599995" height="1"></rect></g></g></g></g></svg>