<svg width="108px" height="74px" viewBox="0 0 108 74" version="1.1" focusable="false" xmlns="http://www.w3.org/2000/svg" xmlns:xlink="http://www.w3.org/1999/xlink"><defs><rect id="path-1" x="0" y="0" width="24" height="24"></rect><rect id="path-2" x="0" y="0" width="24" height="24"></rect><rect id="path-3" x="0" y="0" width="24" height="24"></rect><path d="M0,0.990129262 C0,0.44329597 0.446521291,0 1.00019413,0 L106.999806,0 C107.552198,0 108,0.453369457 108,0.990129262 L108,73.0098707 C108,73.556704 107.553479,74 106.999806,74 L1.00019413,74 C0.447802166,74 0,73.5466305 0,73.0098707 L0,0.990129262 Z" id="rect-1"></path></defs><g id="Page-1" stroke="none" stroke-width="1" fill="none" fill-rule="evenodd"><g id="winner-copy-5" transform="translate(-174.000000, -365.000000)"><g id="Group-11" transform="translate(58.000000, 236.000000)"><g id="Group-17" transform="translate(116.000000, 129.000000)"><g id="Rectangle-47"><use fill-opacity="0" fill="#FFFFFF" fill-rule="evenodd" xlink:href="#rect-1"></use></g><g id="Group-3" transform="translate(8.000000, 13.000000)"><g id="Rectangle-122"><rect stroke-opacity="0.2" stroke="#979797" stroke-width="1" x="0.5" y="0.5" width="23" height="23"></rect></g><polygon id="Rectangle-624" fill="#666666" fill-rule="evenodd" points="8.67824028 12.1243675 10.0609421 13.5178475 13.2013314 9 17.6923077 16 6 16"></polygon><circle id="Oval-10" fill="#666666" fill-rule="evenodd" cx="8.46153846" cy="8.23076923" r="1.23076923"></circle></g><rect id="Rectangle-122" fill="#9E9E9E" x="8" y="43" width="24" height="2"></rect><rect id="Rectangle-122" fill="#E0E0E0" x="8" y="51" width="24" height="1"></rect><rect id="Rectangle-122" fill="#E0E0E0" x="8" y="56" width="24" height="1"></rect><g id="Group-3" transform="translate(42.000000, 13.000000)"><g id="Rectangle-122"><rect stroke-opacity="0.2" stroke="#979797" stroke-width="1" x="0.5" y="0.5" width="23" height="23"></rect></g><polygon id="Rectangle-624" fill="#666666" fill-rule="evenodd" points="8.67824028 12.1243675 10.0609421 13.5178475 13.2013314 9 17.6923077 16 6 16"></polygon><circle id="Oval-10" fill="#666666" fill-rule="evenodd" cx="8.46153846" cy="8.23076923" r="1.23076923"></circle></g><rect id="Rectangle-122" fill="#9E9E9E" x="42" y="43" width="24" height="2"></rect><rect id="Rectangle-122" fill="#E0E0E0" x="42" y="51" width="24" height="1"></rect><rect id="Rectangle-122" fill="#E0E0E0" x="42" y="56" width="24" height="1"></rect><g id="Group-3" transform="translate(76.000000, 13.000000)"><g id="Rectangle-122"><rect stroke-opacity="0.2" stroke="#979797" stroke-width="1" x="0.5" y="0.5" width="23" height="23"></rect></g><polygon id="Rectangle-624" fill="#666666" fill-rule="evenodd" points="8.67824028 12.1243675 10.0609421 13.5178475 13.2013314 9 17.6923077 16 6 16"></polygon><circle id="Oval-10" fill="#666666" fill-rule="evenodd" cx="8.46153846" cy="8.23076923" r="1.23076923"></circle></g><rect id="Rectangle-122" fill="#9E9E9E" x="76" y="43" width="24" height="2"></rect><rect id="Rectangle-122" fill="#E0E0E0" x="76" y="51" width="24" height="1"></rect><rect id="Rectangle-122" fill="#E0E0E0" x="76" y="56" width="24" height="1"></rect><rect id="Rectangle-122" fill="#E0E0E0" x="11" y="61" width="18" height="1"></rect><rect id="Rectangle-122" fill="#E0E0E0" x="45" y="61" width="18" height="1"></rect><rect id="Rectangle-122" fill="#E0E0E0" x="79" y="61" width="18" height="1"></rect></g></g></g></g></svg>