<svg width="108px" height="74px" viewBox="0 0 108 74" version="1.1" focusable="false" xmlns="http://www.w3.org/2000/svg" xmlns:xlink="http://www.w3.org/1999/xlink"><defs><path d="M38,11 L100,11 L100,63 L38,63 L38,11 Z" id="path-1"></path><rect id="path-3" x="38" y="11" width="62" height="52"></rect><rect id="path-4" x="0" y="0" width="22" height="22"></rect><rect id="path-5" x="0" y="0" width="22" height="22"></rect></defs><g id="Page-1" stroke="none" stroke-width="1" fill="none" fill-rule="evenodd"><g id="winner-copy-5" transform="translate(-174.000000, -447.000000)"><g id="Group-5" transform="translate(174.000000, 447.000000)"><g id="Group-8"><g id="Group" transform="translate(60.000000, 29.000000)" fill="#757575"><polygon id="Rectangle-624" points="4.41234793 7.20876695 6.69032187 9.5318973 11.8640512 2 19.2628458 13.6700001 0 13.6700001"></polygon><circle id="Oval-10" cx="4" cy="2" r="2"></circle></g><g id="Rectangle"><rect stroke-opacity="0.2" stroke="#979797" stroke-width="1" x="38.5" y="11.5" width="61" height="51"></rect></g><g id="Group" transform="translate(60.000000, 29.000000)" fill="#757575"><polygon id="Rectangle-624" points="4.41234793 7.20876695 6.69032187 9.5318973 11.8640512 2 19.2628458 13.6700001 0 13.6700001"></polygon><circle id="Oval-10" cx="4" cy="2" r="2"></circle></g><g id="Group-21" transform="translate(8.000000, 11.000000)"><g id="Rectangle"><use fill="#FDFDFD" fill-rule="evenodd" xlink:href="#path-4"></use><rect stroke-opacity="0.2" stroke="#979797" stroke-width="1" x="0.5" y="0.5" width="21" height="21"></rect></g><polygon id="Rectangle-624" fill="#666666" fill-rule="evenodd" points="7.67824028 10.1243675 9.06094211 11.5178475 12.2013314 7 16.6923077 14 5 14"></polygon><circle id="Oval-10" fill="#666666" fill-rule="evenodd" cx="7.23076923" cy="7.23076923" r="1.23076923"></circle></g><g id="Group-21" transform="translate(8.000000, 41.000000)"><g id="Rectangle"><use fill="#FDFDFD" fill-rule="evenodd" xlink:href="#path-5"></use><rect stroke-opacity="0.2" stroke="#979797" stroke-width="1" x="0.5" y="0.5" width="21" height="21"></rect></g><polygon id="Rectangle-624" fill="#666666" fill-rule="evenodd" points="7.67824028 10.1243675 9.06094211 11.5178475 12.2013314 7 16.6923077 14 5 14"></polygon><circle id="Oval-10" fill="#666666" fill-rule="evenodd" cx="7.23076923" cy="7.23076923" r="1.23076923"></circle></g></g></g></g></g></svg>